<svg width="22" height="22" viewBox="0 0 22 22" fill="none" xmlns="http://www.w3.org/2000/svg">
<path d="M10.5592 2.00602L9.2033 3.68324C8.69878 4.31078 7.90937 4.63811 7.10807 4.55164L4.95127 4.31709C4.78071 4.298 4.61072 4.35756 4.48934 4.47893C4.36797 4.60031 4.30841 4.77031 4.32779 4.94363L4.56205 7.09772C4.64911 7.89868 4.32131 8.68868 3.69376 9.19191L2.00603 10.5492C1.87264 10.6564 1.79503 10.8183 1.79503 10.9894C1.79503 11.1605 1.87261 11.3223 2.00621 11.4296L3.69347 12.7857C4.32134 13.2903 4.64877 14.0799 4.56205 14.8811L4.32741 17.0386C4.30822 17.209 4.36768 17.3789 4.48903 17.5003C4.61027 17.6215 4.7801 17.681 4.95403 17.6614L7.10863 17.4271C7.90939 17.3405 8.69905 17.6679 9.20339 18.2956L10.5597 19.9832C10.6668 20.1166 10.8287 20.1942 10.9998 20.1942C11.1709 20.1942 11.3327 20.1166 11.44 19.983L12.7911 18.3018C13.2952 17.6733 14.0852 17.3454 14.8861 17.4325L17.043 17.6671C17.2135 17.6862 17.3835 17.6266 17.5049 17.5052C17.6263 17.3839 17.6858 17.2139 17.6664 17.0405L17.4321 14.8856C17.3458 14.0852 17.6731 13.2958 18.3033 12.7891L19.9939 11.4407C20.1274 11.3333 20.205 11.1713 20.205 11.0001C20.205 10.8289 20.1274 10.6669 19.9942 10.5598L18.3066 9.2033C17.6784 8.69922 17.3507 7.90953 17.4375 7.10844L17.672 4.95229C17.691 4.7816 17.6313 4.61153 17.5099 4.49006C17.3884 4.36863 17.2184 4.30897 17.0455 4.32816L14.8912 4.56245C14.0904 4.64922 13.3007 4.32154 12.7971 3.69395L11.4403 2.00602C11.333 1.87261 11.171 1.79503 10.9998 1.79503C10.8285 1.79503 10.6666 1.87261 10.5592 2.00602ZM10.9998 0C11.7146 0 12.3909 0.323894 12.8392 0.881116L14.1967 2.56994C14.3173 2.72022 14.5062 2.79862 14.6974 2.7779L16.8494 2.54388C17.5622 2.46471 18.2722 2.71378 18.7792 3.22083C19.2862 3.72787 19.5353 4.43791 19.4563 5.14847L19.2221 7.30216C19.2013 7.49374 19.2797 7.68267 19.4306 7.80374L21.1191 9.16098C21.6761 9.60903 22 10.2853 22 11.0001C22 11.7149 21.6761 12.3912 21.1162 12.8417L19.4254 14.1902C19.2747 14.3113 19.196 14.501 19.2167 14.6924L19.4506 16.8437C19.5304 17.5567 19.2815 18.2672 18.7742 18.7745C18.2668 19.2818 17.5563 19.5308 16.8461 19.4513L14.6921 19.217C14.5007 19.1962 14.3119 19.2746 14.1909 19.4255L12.8394 21.1072C12.3915 21.6649 11.715 21.9892 10.9998 21.9892C10.2846 21.9892 9.608 21.6649 9.16036 21.1075L7.80413 19.42C7.68317 19.2695 7.49375 19.1909 7.30214 19.2116L5.15161 19.4455C4.43827 19.5259 3.72717 19.2771 3.2197 18.7695C2.71214 18.262 2.46332 17.5509 2.54328 16.8411L2.77749 14.6875C2.79827 14.4954 2.71975 14.306 2.56902 14.1849L0.881868 12.8289C0.324321 12.381 0 11.7046 0 10.9894C0 10.2742 0.324341 9.59767 0.881473 9.15012L2.5698 7.79231C2.72 7.67187 2.79833 7.48309 2.77753 7.29174L2.54359 5.14044C2.46383 4.42747 2.71278 3.71694 3.22007 3.20965C3.72736 2.70236 4.43789 2.45342 5.1481 2.53288L7.30139 2.76705C7.49363 2.78779 7.68318 2.7092 7.80585 2.55662L9.16138 0.879895C9.60944 0.323534 10.2854 0 10.9998 0Z" fill="#DF720C"/>
<path d="M10.2299 12.9936L13.6475 8.43688C13.9449 8.04033 14.5074 7.95997 14.904 8.25738C15.3005 8.55479 15.3809 9.11735 15.0835 9.5139L11.5101 14.2784C11.2368 14.6423 10.8191 14.8698 10.3652 14.9019C9.91115 14.9341 9.46553 14.7677 9.14378 14.446L6.99961 12.3027C6.64904 11.9523 6.64892 11.384 6.99935 11.0334C7.34977 10.6829 7.91805 10.6827 8.26863 11.0332L10.2299 12.9936Z" fill="#DF720C"/>
</svg>
