<svg width="14" height="14" viewBox="0 0 14 14" fill="none" xmlns="http://www.w3.org/2000/svg">
<path fill-rule="evenodd" clip-rule="evenodd" d="M8.41 7L12.71 2.71V2.71C13.1021 2.31788 13.1021 1.68212 12.71 1.29C12.3179 0.89788 11.6821 0.89788 11.29 1.29L7 5.59L2.71 1.29L2.71 1.29C2.31788 0.89788 1.68212 0.89788 1.29 1.29C0.897878 1.68212 0.897878 2.31788 1.29 2.71V2.71L5.59 7L1.29 11.29V11.29C0.897878 11.6789 0.895282 12.3121 1.2842 12.7042C1.28613 12.7061 1.28806 12.7081 1.29 12.71H1.29C1.67892 13.1021 2.31208 13.1047 2.7042 12.7158C2.70614 12.7139 2.70807 12.7119 2.71 12.71L7 8.41L11.29 12.71V12.71C11.6789 13.1021 12.3121 13.1047 12.7042 12.7158C12.7061 12.7139 12.7081 12.7119 12.71 12.71V12.71C13.1021 12.3211 13.1047 11.6879 12.7158 11.2958C12.7139 11.2939 12.7119 11.2919 12.71 11.29L8.41 7Z" fill="#3D2C3E"/>
</svg>
